<svg width="128" height="128" viewBox="0 0 128 128" fill="none" xmlns="http://www.w3.org/2000/svg">
<path d="M16 64C16 37.4903 37.4903 16 64 16C90.5097 16 112 37.4903 112 64V98.2857C112 99.8778 112 100.674 111.925 101.344C111.298 106.907 106.907 111.298 101.344 111.925C100.674 112 99.8778 112 98.2857 112H64C37.4903 112 16 90.5097 16 64Z" stroke="white" stroke-width="7"/>
<path d="M46 79C46 81.2091 47.7909 83 50 83C52.2091 83 54 81.2091 54 79C54 76.7909 52.2091 75 50 75C47.7909 75 46 76.7909 46 79Z" fill="white"/>
<path d="M66.2069 50.6285C66.9408 49.1433 69.059 49.1433 69.7929 50.6285L70.7855 52.6372C72.47 56.0461 74.91 59.0258 77.9196 61.3496L79.9497 62.9171C80.9866 63.7177 80.9866 65.2825 79.9497 66.0831L77.9196 67.6506C74.91 69.9744 72.47 72.9541 70.7855 76.363L69.7929 78.3717C69.059 79.8569 66.9408 79.8569 66.2069 78.3717L65.2143 76.363C63.5298 72.9541 61.0898 69.9744 58.0802 67.6506L56.0501 66.0831C55.0132 65.2825 55.0132 63.7177 56.0501 62.9171L58.0802 61.3496C61.0898 59.0258 63.5298 56.0461 65.2143 52.6372L66.2069 50.6285Z" stroke="white" stroke-width="7" stroke-linejoin="round"/>
</svg>
