<svg width="126" height="18" viewBox="0 0 126 18" fill="none" xmlns="http://www.w3.org/2000/svg">
<g clip-path="url(#clip0_16558_41254)">
<path fill-rule="evenodd" clip-rule="evenodd" d="M2.49785 2.45016V16.8927H0V18H6.51502V9.07947L12.3077 18H15.0901H20.696H21.6051V16.8927H19.9308L19.6416 16.4742L19.1073 15.5701V0H15.0901V9.02389L9.34697 0H6.25751H2.49785H0.872247L1.93159 1.44648L2.49785 2.45016ZM11.6764 6.20035C11.5487 6.10849 11.3118 5.93862 11.1499 5.8229C10.9881 5.70713 10.7091 5.50464 10.5299 5.3729C10.3507 5.24115 10.1583 5.10267 10.1024 5.06509C10.0465 5.02757 9.8549 4.88865 9.67663 4.75641C9.49844 4.62412 9.2743 4.46124 9.17865 4.39438C9.083 4.32752 8.89134 4.18864 8.75277 4.08574C8.61411 3.98289 8.36866 3.80382 8.20713 3.6879C8.04561 3.57198 7.8211 3.40929 7.70823 3.32636C7.13628 2.90605 6.63952 2.55392 6.55525 2.50891C6.50349 2.48124 6.45098 2.43968 6.43866 2.4165C6.42636 2.39337 6.39466 2.37262 6.36819 2.37042C6.34172 2.36821 6.28089 2.33244 6.23295 2.29097L6.14581 2.21554L6.22223 2.32778C6.26422 2.38954 6.3762 2.52263 6.47116 2.62349L6.80676 2.98013C6.89647 3.07537 7.00193 3.19129 7.04121 3.23767C7.11073 3.31973 7.30164 3.53292 7.62564 3.89007C7.71304 3.98654 7.84559 4.13621 7.92009 4.22272C7.99469 4.30919 8.10817 4.4346 8.17249 4.5013C8.23673 4.56804 8.33895 4.68568 8.39972 4.76268C8.4604 4.83972 8.56668 4.96208 8.63569 5.0347C8.7048 5.10726 8.818 5.23282 8.88735 5.31366C9.00855 5.45515 9.23504 5.706 9.45728 5.94504C9.64239 6.14419 9.6178 6.18417 9.22501 6.32331C9.08369 6.37338 8.88803 6.44454 8.79005 6.48143C8.69208 6.51831 8.50332 6.5855 8.37055 6.63064C8.23781 6.67584 8.02082 6.75024 7.88842 6.7961C7.756 6.8419 7.60632 6.8919 7.55567 6.90721C7.45957 6.93622 7.55948 7.13306 7.67776 7.14776C7.70206 7.15081 7.73162 7.17133 7.74337 7.19343C7.75513 7.21554 7.82164 7.27718 7.89116 7.33042C8.00875 7.42047 8.17523 7.55286 8.33715 7.68538C8.45491 7.78177 8.67823 7.95717 8.79409 8.04439C8.85537 8.09062 8.9191 8.15374 8.93557 8.18472C8.95205 8.21571 8.98584 8.2433 9.01071 8.24606C9.03557 8.24882 9.09841 8.29039 9.15043 8.33841C9.20245 8.38642 9.30421 8.46991 9.37653 8.52395C9.44894 8.57794 9.53713 8.65488 9.57254 8.69491C9.60796 8.73494 9.65793 8.77174 9.68372 8.77668C9.70938 8.78161 9.77103 8.8245 9.82056 8.87209C9.94706 8.9934 10.1004 9.12185 10.1644 9.15988C10.2346 9.20167 10.4238 9.363 10.4958 9.44235C10.5266 9.47642 10.5728 9.50834 10.5984 9.51338C10.624 9.51836 10.685 9.56161 10.734 9.60943C10.7831 9.6572 10.8821 9.74069 10.9541 9.79488C11.0262 9.84906 11.1226 9.92851 11.1683 9.97145C11.2141 10.0144 11.3105 10.0938 11.3825 10.148C11.4546 10.2022 11.5542 10.2863 11.604 10.3348C11.6536 10.3833 11.7165 10.4249 11.7437 10.4272C11.7708 10.4294 11.8082 10.46 11.8268 10.4951C11.8455 10.5302 11.9031 10.5828 11.955 10.6119C12.322 10.8186 12.2179 11.0092 11.6991 11.0802C11.6568 11.086 11.5951 11.1052 11.5619 11.1228C11.504 11.1536 11.2553 11.2304 10.9225 11.3203C10.6051 11.406 10.6088 11.461 10.9509 11.7534C11.198 11.9645 11.3681 12.1233 11.4415 12.2112C11.4804 12.2577 11.5323 12.2996 11.5567 12.3042C11.5811 12.3088 11.6487 12.3623 11.7068 12.4232C11.7648 12.484 11.8765 12.5891 11.9549 12.6567C12.0333 12.7243 12.1337 12.8154 12.1779 12.8592C12.2785 13.0114 13.1426 13.7631 13.7084 14.2552C13.9865 14.4971 14.1926 14.6764 14.2002 14.6907C14.2233 14.7341 14.2624 14.7675 14.2871 14.7647C14.3117 14.762 14.3441 14.7826 14.3589 14.8105C14.3737 14.8384 14.4442 14.9136 14.5155 14.9776C14.5868 15.0417 14.7153 15.16 14.801 15.2406C14.8866 15.3212 15.0537 15.4732 15.172 15.5784C15.2904 15.6836 15.4083 15.7929 15.434 15.8213C15.4598 15.8496 15.5068 15.7627 15.4592 15.6703C15.4117 15.5779 15.3605 15.495 15.3455 15.4861C15.3306 15.4773 15.2386 15.3611 15.1409 15.228C15.0434 15.0949 14.8706 14.8703 14.7569 14.7289C14.6433 14.5876 14.4812 14.385 14.3968 14.2787C14.2185 14.0546 13.1237 12.7714 13.1237 12.7714C13.1178 12.7644 13.1096 12.7535 13.0957 12.7351C13.0464 12.6698 12.9257 12.5098 12.5833 12.0932C12.3263 11.7805 12.3321 11.6327 12.6011 11.6342C12.626 11.6343 12.7478 11.604 12.8718 11.567C12.9958 11.5299 13.3274 11.432 13.6088 11.3496C13.8902 11.267 14.1338 11.1924 14.1501 11.1837C14.1979 11.1583 14.1455 11.0903 13.9564 10.9323C13.7292 10.7424 12.0285 9.26651 11.708 8.98124C11.6417 8.92212 10.8213 8.21918 10.4749 7.92463C10.3046 7.77978 10.1283 7.62584 10.0831 7.58261C10.0379 7.53938 9.92653 7.44096 9.83564 7.36385C9.74476 7.28674 9.67116 7.20685 9.67221 7.18627C9.67226 7.18528 9.67229 7.18432 9.67233 7.18338C9.67249 7.17894 9.67262 7.17498 9.67427 7.17098C9.68769 7.1384 9.80121 7.10335 10.8399 6.78267L10.923 6.75701C11.4462 6.59548 11.8866 6.44875 11.9018 6.43099L11.9033 6.42923C11.9096 6.42174 11.9148 6.41562 11.9175 6.40951C11.9295 6.38233 11.892 6.35536 11.6876 6.20838L11.6764 6.20035Z" fill="black"/>
<path d="M28.6652 16.2618V5H31.1717L37.0601 12.7253V5H39.7382V16.2618H41.4034V17H37.0601L31.3433 9.48069V17H27V16.2618H28.6652Z" fill="black"/>
<path d="M47.8619 16.2618V17H42.231V16.2618H43.7074V5H46.3855V16.2618H47.8619Z" fill="black"/>
<path d="M50.3503 16.2618V5H52.8567L58.7451 12.7253V5H61.4233V16.2618H63.0885V17H58.7451L53.0284 9.48069V17H48.6851V16.2618H50.3503Z" fill="black"/>
<path d="M74.3538 16.2618V17H63.9161V16.2618H67.7959V7.3176H64.3968V5H73.8731V7.3176H70.474V16.2618H74.3538Z" fill="black"/>
<path d="M76.8469 16.2618V5H81.3963C83.2618 5 84.5894 5.31474 85.3791 5.94421C86.1802 6.57368 86.5808 7.58655 86.5808 8.98283C86.5808 10.9056 85.8197 12.1474 84.2976 12.7082L86.804 16.2618H88.4177V17H84.04L81.3791 13.1717H79.525V17H75.1817V16.2618H76.8469ZM81.4821 10.8541C82.3977 10.8541 83.0214 10.7053 83.3534 10.4077C83.6853 10.1102 83.8512 9.64092 83.8512 9C83.8512 8.34764 83.6795 7.90129 83.3362 7.66094C82.9928 7.4206 82.392 7.30043 81.5336 7.30043H79.525V10.8541H81.4821Z" fill="black"/>
<path d="M103.394 16.2618V17H98.8793L97.7634 14.4077H92.7334L91.6175 17H87.1025V16.2618H89.0767L93.9523 5H96.5445L101.403 16.2618H103.394ZM95.257 8.57082L93.7462 12.0558H96.7505L95.257 8.57082Z" fill="black"/>
<path d="M116.08 16.2618V17H102.466V16.2618H104.131V5H108.372C110.512 5 112.154 5.52647 113.299 6.5794C114.443 7.62089 115.016 9.09156 115.016 10.9914C115.016 13.5551 114.02 15.3119 112.028 16.2618H116.08ZM108.509 14.6309C109.734 14.6309 110.672 14.3219 111.325 13.7039C111.988 13.0858 112.32 12.1874 112.32 11.0086C112.32 9.82976 111.988 8.92561 111.325 8.29614C110.672 7.65522 109.665 7.33476 108.303 7.33476H106.81V14.6309H108.509Z" fill="black"/>
<path d="M118.57 16.2618V5H127.222V7.38627H121.248V9.85837H126.622V12.1416H121.248V14.6309H127.411V16.2618H129.077V17H116.905V16.2618H118.57Z" fill="black"/>
</g>
<defs>
<clipPath id="clip0_16558_41254">
<rect width="126" height="18" fill="white"/>
</clipPath>
</defs>
</svg>
